<svg xmlns="http://www.w3.org/2000/svg" width="260.368" height="132.715" viewBox="0 0 260.368 132.715">
  <g id="Grupo_9" data-name="Grupo 9" transform="translate(-2571.095 -75.31)">
    <g id="Grupo_8" data-name="Grupo 8">
      <path id="Trazado_3" data-name="Trazado 3" d="M2579.757,188.1h-8.662v-2.637h20.335V188.1h-8.662V207.7h-3.011Z" fill="#2a7d90"/>
      <path id="Trazado_4" data-name="Trazado 4" d="M2600.513,185.465h3.012v11.507q0,6.062,4.185,7.834a8.747,8.747,0,0,0,3.386.6,8.99,8.99,0,0,0,3.329-.549,5.772,5.772,0,0,0,2.271-1.586,8.606,8.606,0,0,0,1.743-5.825V185.465h3.011v11.507q0,7.992-5.974,10.284a12.913,12.913,0,0,1-4.592.753,12.781,12.781,0,0,1-4.534-.73,8.433,8.433,0,0,1-3.216-2.1q-2.621-2.762-2.621-7.74Z" fill="#2a7d90"/>
      <path id="Trazado_5" data-name="Trazado 5" d="M2647.449,185.465h17.208V188.1h-14.2v6h12.651v2.638H2650.46v8.321h14.523V207.7h-17.534Z" fill="#2a7d90"/>
      <path id="Trazado_6" data-name="Trazado 6" d="M2675.89,202.687a18.035,18.035,0,0,0,6.154,2.481,11.326,11.326,0,0,0,2.149.2,13.547,13.547,0,0,0,2.255-.2,7.117,7.117,0,0,0,2.06-.651,3.379,3.379,0,0,0,2.018-3.187q0-2.214-3.386-3.093-.993-.251-2.117-.455l-2.328-.393q-4.445-.738-6.2-2.166a4.27,4.27,0,0,1-1.628-3.517,5.589,5.589,0,0,1,3-4.883,11.589,11.589,0,0,1,6.3-1.679,16.967,16.967,0,0,1,6.268,1.1,18.924,18.924,0,0,1,2.067.943l-1.107,2.559a14.7,14.7,0,0,0-5.568-1.774,14.125,14.125,0,0,0-1.953-.142,8.711,8.711,0,0,0-3.827.8,2.887,2.887,0,0,0-1.937,2.606q0,1.759,2.458,2.575a16.138,16.138,0,0,0,2.508.612l2.9.487a16.962,16.962,0,0,1,5.079,1.491,6.181,6.181,0,0,1,2.093,1.861,4.907,4.907,0,0,1,.675,2.731,5.716,5.716,0,0,1-.83,3.054,6.924,6.924,0,0,1-2.214,2.23,12.5,12.5,0,0,1-6.887,1.742,16.883,16.883,0,0,1-7.343-1.633,13.458,13.458,0,0,1-2.084-1.224Z" fill="#2a7d90"/>
      <path id="Trazado_7" data-name="Trazado 7" d="M2704.51,185.465h9.133a12.321,12.321,0,0,1,7.392,2.009,7.222,7.222,0,0,1,3,6.233,8.179,8.179,0,0,1-3.159,6.751,12.009,12.009,0,0,1-7.684,2.37h-5.666V207.7h-3.012Zm9.085,14.726a7.941,7.941,0,0,0,5.242-1.6,5.766,5.766,0,0,0,2-4.695,5.015,5.015,0,0,0-2.247-4.427,9.531,9.531,0,0,0-5.421-1.366h-5.65v12.089Z" fill="#2a7d90"/>
      <path id="Trazado_8" data-name="Trazado 8" d="M2742.134,185.465h1.71l9.98,22.23h-3.289l-2.182-4.867H2736.81l-2.36,4.867h-3.094Zm5.047,14.726-2.084-4.663q-.39-.879-.765-1.821l-.651-1.774a18.387,18.387,0,0,1-.733-2.355h-.2a12.193,12.193,0,0,1-.586,1.79l-.831,2.041q-.374.879-.814,1.789l-2.426,4.993Z" fill="#2a7d90"/>
      <path id="Trazado_9" data-name="Trazado 9" d="M2781.369,190.08a10.283,10.283,0,0,0-6.952-2.323,9.359,9.359,0,0,0-6.544,2.449,7.944,7.944,0,0,0-2.719,6.138,8.5,8.5,0,0,0,2.8,6.437,9.494,9.494,0,0,0,6.756,2.622,12.893,12.893,0,0,0,5.748-1.413,7.939,7.939,0,0,0,1.465-.9l1.172,2.167a12.445,12.445,0,0,1-6.17,2.559,16.5,16.5,0,0,1-2.508.188,13.985,13.985,0,0,1-4.819-.824,12.433,12.433,0,0,1-3.964-2.308,10.891,10.891,0,0,1-2.687-3.54,9.524,9.524,0,0,1-.985-4.145,12.984,12.984,0,0,1,.448-3.618,10.841,10.841,0,0,1,1.279-2.826,11.3,11.3,0,0,1,1.986-2.332,12,12,0,0,1,2.572-1.758,14.044,14.044,0,0,1,6.463-1.507,13.135,13.135,0,0,1,8.173,2.606Z" fill="#2a7d90"/>
      <path id="Trazado_10" data-name="Trazado 10" d="M2792.521,185.465h3.012V207.7h-3.012Z" fill="#2a7d90"/>
      <path id="Trazado_11" data-name="Trazado 11" d="M2809.932,204.877a10.894,10.894,0,0,1-2.687-3.54,9.524,9.524,0,0,1-.985-4.145,12.975,12.975,0,0,1,.448-3.618,10.841,10.841,0,0,1,1.279-2.826,11.3,11.3,0,0,1,1.986-2.332,12,12,0,0,1,2.572-1.758,14.046,14.046,0,0,1,6.463-1.507,13.821,13.821,0,0,1,6.252,1.444,11.476,11.476,0,0,1,4.494,3.925,10.433,10.433,0,0,1,1.709,5.824,10.8,10.8,0,0,1-3.712,8.4,12.657,12.657,0,0,1-5.617,2.873,16.55,16.55,0,0,1-3.809.392,12.906,12.906,0,0,1-4.429-.824A12.431,12.431,0,0,1,2809.932,204.877Zm2.23-14.671a8.369,8.369,0,0,0-1.986,2.716,8.146,8.146,0,0,0-.724,3.454,8.426,8.426,0,0,0,.749,3.532,9.026,9.026,0,0,0,2.051,2.873,9.495,9.495,0,0,0,6.756,2.622,9.36,9.36,0,0,0,6.545-2.449,7.977,7.977,0,0,0,2.719-6.139,8.629,8.629,0,0,0-1.3-4.6,9.679,9.679,0,0,0-7.9-4.458,10.981,10.981,0,0,0-3.964.651A9.365,9.365,0,0,0,2812.162,190.206Z" fill="#2a7d90"/>
    </g>
    <path id="Trazado_12" data-name="Trazado 12" d="M2754.718,146.2V75.31l-73.512,0V92.821c-18.59,1.1-33.366,16.032-33.366,34.232,0,18.916,15.959,34.305,35.576,34.305.863,0,1.716-.041,2.567-.1v-4.82c-.853.068-1.709.114-2.567.114-16.867,0-30.59-13.232-30.59-29.5,0-15.548,12.542-28.316,28.38-29.412V146.2Zm-68.8-48.538c14.475,1.134,26.217,12.016,27.886,25.981h-27.886ZM2750.01,79.85v61.806h-64.095V128.468h33.068c0-.047,0-.109,0-.2,0-.41.006-.822.006-1.214,0-18.105-14.623-32.969-33.076-34.211V79.85Z" fill="#2a7d90"/>
  </g>
</svg>
