<svg xmlns="http://www.w3.org/2000/svg" width="43.891" height="43.89" viewBox="0 0 43.891 43.89">
  <g id="Grupo_119" data-name="Grupo 119" transform="translate(-511.184 -2647.147)">
    <circle id="Elipse_24" data-name="Elipse 24" cx="20.31" cy="20.31" r="20.31" transform="translate(512.002 2649.599)" fill="none" stroke="#cdbfbc" stroke-width="1.635"/>
    <g id="Grupo_116" data-name="Grupo 116">
      <path id="Trazado_59" data-name="Trazado 59" d="M542.422,2664.775a2.758,2.758,0,0,1-.957,1.6q-5.113,5.093-10.207,10.2a2.076,2.076,0,0,1-1.721.667,1.932,1.932,0,0,1-1.141-.488c-.049-.044-.1-.088-.143-.135q-2.7-2.7-5.4-5.4a2.022,2.022,0,0,1,2.685-3.022c.179.155.343.327.51.5q1.761,1.758,3.518,3.518a1.6,1.6,0,0,1,.132.173l.087.029a.992.992,0,0,1,.123-.2q4.485-4.491,8.973-8.981a2.076,2.076,0,0,1,1.663-.666,1.992,1.992,0,0,1,1.847,1.684,1.259,1.259,0,0,0,.034.131Z" fill="#cdbfbc"/>
    </g>
    <g id="Grupo_118" data-name="Grupo 118">
      <g id="Grupo_117" data-name="Grupo 117">
        <path id="Trazado_60" data-name="Trazado 60" d="M555.075,2669.909h-4.906a17.878,17.878,0,0,0-17.857-17.857v-4.905A22.788,22.788,0,0,1,555.075,2669.909Z" fill="#6c6c6c"/>
      </g>
    </g>
  </g>
</svg>
