<svg xmlns="http://www.w3.org/2000/svg" width="45.526" height="45.526" viewBox="0 0 45.526 45.526">
  <g id="Grupo_127" data-name="Grupo 127" transform="translate(-1363.699 -2645.92)">
    <circle id="Elipse_26" data-name="Elipse 26" cx="20.31" cy="20.31" r="20.31" transform="translate(1366.151 2648.373)" fill="none" stroke="#2d7d91" stroke-width="4.906"/>
    <g id="Grupo_126" data-name="Grupo 126">
      <g id="Grupo_125" data-name="Grupo 125">
        <path id="Trazado_63" data-name="Trazado 63" d="M1396.571,2663.548a2.754,2.754,0,0,1-.956,1.6q-5.113,5.093-10.207,10.2a2.078,2.078,0,0,1-1.721.667,1.93,1.93,0,0,1-1.141-.488q-.074-.066-.144-.135-2.7-2.7-5.4-5.4a2.022,2.022,0,0,1,2.685-3.022c.179.155.343.327.51.494q1.76,1.758,3.518,3.519a1.772,1.772,0,0,1,.132.173l.087.029a.923.923,0,0,1,.123-.2q4.485-4.493,8.973-8.981a2.075,2.075,0,0,1,1.663-.666,1.99,1.99,0,0,1,1.847,1.684c.007.044.022.087.033.13Z" fill="#2d7d91"/>
      </g>
    </g>
  </g>
</svg>
