<svg xmlns="http://www.w3.org/2000/svg" width="44.534" height="45.526" viewBox="0 0 44.534 45.526">
  <g id="Grupo_124" data-name="Grupo 124" transform="translate(-937.002 -2645.92)">
    <circle id="Elipse_25" data-name="Elipse 25" cx="20.31" cy="20.31" r="20.31" transform="translate(938.464 2648.373)" fill="none" stroke="#b48d70" stroke-width="2.924" opacity="0.49"/>
    <g id="Grupo_121" data-name="Grupo 121">
      <g id="Grupo_120" data-name="Grupo 120">
        <path id="Trazado_61" data-name="Trazado 61" d="M968.884,2663.548a2.76,2.76,0,0,1-.957,1.6q-5.113,5.093-10.207,10.2a2.077,2.077,0,0,1-1.721.667,1.931,1.931,0,0,1-1.141-.488q-.073-.066-.144-.135-2.7-2.7-5.4-5.4a2.021,2.021,0,0,1,2.685-3.021c.179.155.343.327.51.494q1.761,1.758,3.518,3.519a1.63,1.63,0,0,1,.132.173l.087.029a.953.953,0,0,1,.123-.2q4.485-4.491,8.973-8.98a2.072,2.072,0,0,1,1.663-.666,1.99,1.99,0,0,1,1.847,1.683,1.16,1.16,0,0,0,.034.131Z" fill="#b48d70"/>
      </g>
    </g>
    <g id="Grupo_123" data-name="Grupo 123">
      <g id="Grupo_122" data-name="Grupo 122">
        <path id="Trazado_62" data-name="Trazado 62" d="M958.774,2691.446v-4.906a17.857,17.857,0,0,0,0-35.714v-4.906a22.763,22.763,0,0,1,0,45.526Z" fill="#b48d70"/>
      </g>
    </g>
  </g>
</svg>
