<svg xmlns="http://www.w3.org/2000/svg" width="20.154" height="20.152" viewBox="0 0 20.154 20.152">
  <g id="Grupo_63" data-name="Grupo 63" transform="translate(-3124.901 -2800.909)">
    <path id="Trazado_57" data-name="Trazado 57" d="M3139.131,2800.909h-8.311q-5.489.437-5.919,5.923v8.311c.3,3.688,2.3,5.676,6.041,5.918h8.064c3.785-.25,5.793-2.262,6.049-6.047v-8.061C3144.807,2803.208,3142.82,2801.206,3139.131,2800.909Zm2.271,17.761c-1.465.813-4.487.626-6.675.626-2.925,0-6.3.133-7.43-1.887-1.025-1.815-1.053-11.344.124-13.094.832-1.239,2.211-1.387,4.405-1.511,4.344-.262,9.21-.738,10.707,1.511.845,1.264.763,4.769.763,6.548C3143.3,2814.154,3143.51,2817.488,3141.4,2818.67Z" fill="#fff"/>
    <path id="Trazado_58" data-name="Trazado 58" d="M3134.1,2805.951a5,5,0,0,0-4.283,5.79c.713,5.862,9.7,5.572,10.319-.126A5.076,5.076,0,0,0,3134.1,2805.951Zm1,8.436c-4.1.144-4.737-6.044-.618-6.674C3139.271,2806.982,3139.464,2814.233,3135.1,2814.387Z" fill="#fff"/>
    <circle id="Elipse_1" data-name="Elipse 1" cx="1.286" cy="1.286" r="1.286" transform="translate(3139.114 2804.421)" fill="#fff"/>
  </g>
</svg>
