<svg xmlns="http://www.w3.org/2000/svg" width="24.879" height="24.878" viewBox="0 0 24.879 24.878">
  <g id="Grupo_134" data-name="Grupo 134" transform="translate(-1632.343 -7378.493)">
    <path id="Trazado_77" data-name="Trazado 77" d="M1649.91,7378.493h-10.26q-6.777.538-7.307,7.312v10.26c.366,4.552,2.842,7.006,7.457,7.306h9.955c4.673-.309,7.152-2.794,7.467-7.466v-9.951C1656.916,7381.331,1654.463,7378.86,1649.91,7378.493Zm2.8,21.925c-1.808,1-5.538.774-8.239.774-3.611,0-7.775.164-9.173-2.33-1.265-2.241-1.3-14,.154-16.164,1.026-1.53,2.729-1.712,5.438-1.866,5.362-.323,11.369-.911,13.217,1.866,1.043,1.559.942,5.887.942,8.084C1655.051,7394.843,1655.315,7398.959,1652.712,7400.418Z" fill="#2d7d91"/>
    <path id="Trazado_78" data-name="Trazado 78" d="M1643.7,7384.717a6.171,6.171,0,0,0-5.287,7.148c.88,7.236,11.974,6.878,12.738-.155A6.267,6.267,0,0,0,1643.7,7384.717Zm1.231,10.415c-5.065.177-5.847-7.462-.762-8.24C1650.082,7385.99,1650.32,7394.941,1644.931,7395.132Z" fill="#2d7d91"/>
    <circle id="Elipse_27" data-name="Elipse 27" cx="1.587" cy="1.587" r="1.587" transform="translate(1649.888 7382.828)" fill="#2d7d91"/>
  </g>
</svg>
