<svg xmlns="http://www.w3.org/2000/svg" width="69.702" height="73.365" viewBox="0 0 69.702 73.365">
  <g id="Grupo_24" data-name="Grupo 24" transform="translate(-3127.303 -718.642)">
    <path id="Trazado_32" data-name="Trazado 32" d="M3135.127,792.007a18.257,18.257,0,0,1-2.493-.8,8.875,8.875,0,0,1-5.321-8.663q.011-16.8,0-33.6c0-2.889-.058-5.782.06-8.667a8.79,8.79,0,0,1,8.547-8.309c3.08-.064,6.162-.026,9.243-.021a1.823,1.823,0,0,1,1.964,1.751,1.858,1.858,0,0,1-1.987,1.819c-2.89.014-5.78-.011-8.67.01a5.273,5.273,0,0,0-5.383,4.054,7.225,7.225,0,0,0-.193,1.841q-.015,20.56,0,41.122c0,3.667,2.231,5.881,5.9,5.881q25.4,0,50.8,0c2.888,0,4.9-1.434,5.61-4.049a7.123,7.123,0,0,0,.208-1.839q.016-20.561.007-41.122c0-2.941-1.455-5.012-4.041-5.7a7.147,7.147,0,0,0-1.773-.184c-2.746-.018-5.493.012-8.239-.027a3,3,0,0,1-1.467-.417,1.515,1.515,0,0,1-.662-1.751,1.554,1.554,0,0,1,1.409-1.339,90.645,90.645,0,0,1,10.661.112c4.638.5,7.665,4.234,7.677,8.967q.052,20.883,0,41.766a8.878,8.878,0,0,1-7.578,9.043,1.011,1.011,0,0,0-.244.121Z" fill="#fff"/>
    <path id="Trazado_33" data-name="Trazado 33" d="M3160.357,766.2v-1.01q0-22.1,0-44.193c0-1.494.66-2.359,1.8-2.358s1.785.861,1.785,2.363v45.211c.291-.265.476-.427.656-.6q5.061-4.759,10.12-9.523a1.992,1.992,0,0,1,1.85-.693,1.752,1.752,0,0,1,1.01,2.887,5.169,5.169,0,0,1-.453.457l-13.306,12.514c-1.273,1.2-2.051,1.2-3.325,0q-6.654-6.255-13.3-12.518a3.155,3.155,0,0,1-.758-1.011,1.685,1.685,0,0,1,.578-2.043,1.825,1.825,0,0,1,2.138.029,5.968,5.968,0,0,1,.536.473l10.124,9.518C3159.942,765.841,3160.085,765.962,3160.357,766.2Z" fill="#fff"/>
  </g>
</svg>
