<svg xmlns="http://www.w3.org/2000/svg" width="110.41" height="120.435" viewBox="0 0 110.41 120.435">
  <g id="Grupo_143" data-name="Grupo 143" transform="translate(-904.487 -6230.32)">
    <path id="Trazado_81" data-name="Trazado 81" d="M970.405,6230.32a27.953,27.953,0,0,1,5.068,2.169c3.927,2.668,5,6.646,4.456,11.175a23.247,23.247,0,0,1-6.379,13,40.855,40.855,0,0,1-8.741,7.066,1.765,1.765,0,0,1-2.571-.268c-.6-.865-.361-1.833.761-2.532a36.264,36.264,0,0,0,9.495-8.207,17.969,17.969,0,0,0,4.2-11.056,7.712,7.712,0,0,0-4.955-7.5,7.6,7.6,0,0,0-8.857,2.65c-.158.206-.3.421-.458.632-1.546,2.135-3.943,2.165-5.451.016a8.116,8.116,0,0,0-5.375-3.647,7.643,7.643,0,0,0-8.873,6.854c-.308,4.886,1.615,9,4.642,12.671a33.863,33.863,0,0,0,7.968,6.936c.439.281.9.536,1.309.851a1.647,1.647,0,0,1,.491,2.347,1.679,1.679,0,0,1-2.281.44c-5.322-3.235-9.954-7.192-12.979-12.754a19.255,19.255,0,0,1-2.521-10.38,10.935,10.935,0,0,1,9.1-10.27,2.642,2.642,0,0,0,.5-.2h2.681c.883.256,1.785.46,2.646.776a11.18,11.18,0,0,1,5.381,4.368c.567-.668,1.042-1.273,1.562-1.834a12.027,12.027,0,0,1,6.274-3.31Z" fill="#dbdbdb"/>
    <path id="Trazado_82" data-name="Trazado 82" d="M1003.278,6304.449v6.521c0,2.868.007,5.734,0,8.6,0,1.329-.609,2.1-1.625,2.12-1.057.024-1.716-.776-1.719-2.16-.011-4.58,0-9.16,0-13.74v-1.343h-1.4c-7.857,0-15.714-.035-23.571.02a5.246,5.246,0,0,1-5.234-3.2c-2.466-5-5.034-9.953-7.563-14.925-.163-.32-.348-.63-.682-1.233V6347.4h36.067c1.827,0,2.374-.543,2.377-2.414q.014-7.986,0-15.974c0-.26-.007-.522,0-.782.043-1.29.707-2.068,1.733-2.037.986.031,1.609.78,1.613,2.02q.016,6.591,0,13.182c0,1.378.024,2.756-.012,4.133a5.068,5.068,0,0,1-5.33,5.22q-38.2.007-76.409,0a5.058,5.058,0,0,1-5.4-5.374c-.036-6.144-.013-12.289-.013-18.432q0-10.556,0-21.113v-1.324c-.469-.022-.861-.057-1.255-.057-2.271-.006-4.543.03-6.814-.013-2.811-.051-4.373-2.434-3.122-4.955,3.389-6.828,6.858-13.616,10.344-20.394a5.324,5.324,0,0,1,5.108-2.971q39.321.015,78.642,0a5.457,5.457,0,0,1,5.223,3.163c3.4,6.653,6.808,13.308,10.155,19.99,1.373,2.741-.191,5.152-3.27,5.173-2.564.018-5.129,0-7.847,0M957.9,6347.4v-62.3c-.336.621-.516.937-.68,1.26-2.513,4.937-5.076,9.851-7.512,14.825a5.294,5.294,0,0,1-5.3,3.28c-7.856-.062-15.712-.023-23.569-.023h-1.311c-.034.292-.065.436-.065.578q0,20.108,0,40.212c0,1.605.63,2.163,2.289,2.163q17.538,0,35.074,0Zm4.582-67.926c.236.509.392.873.57,1.225,3.212,6.329,6.448,12.645,9.621,18.993a2.262,2.262,0,0,0,2.34,1.425c11.758-.038,23.518-.023,35.276-.023h1.209c-.161-.381-.246-.616-.358-.836q-4.893-9.644-9.78-19.289a2.545,2.545,0,0,0-2.58-1.513q-17.526.047-35.053.018Zm-5.62,0h-1.316c-11.572,0-23.145.023-34.718-.028a2.894,2.894,0,0,0-2.959,1.822c-3.125,6.247-6.316,12.461-9.481,18.689-.162.32-.289.657-.474,1.08.357.024.6.054.853.054q17.973,0,35.947.015a1.813,1.813,0,0,0,1.834-1.126q4.947-9.8,9.944-19.581c.127-.252.212-.525.37-.925" fill="#dbdbdb"/>
  </g>
</svg>
