<svg xmlns="http://www.w3.org/2000/svg" width="165.261" height="180.266" viewBox="0 0 165.261 180.266">
  <g id="Grupo_15" data-name="Grupo 15" transform="translate(-2618.756 -1878.839)">
    <g id="Grupo_14" data-name="Grupo 14">
      <path id="Trazado_16" data-name="Trazado 16" d="M2717.422,1878.839c2.545,1.058,5.352,1.73,7.586,3.246,5.878,3.993,7.48,9.948,6.67,16.727-.907,7.6-4.5,13.9-9.549,19.462a61.173,61.173,0,0,1-13.083,10.575c-1.544.965-3.007.8-3.848-.4-.905-1.3-.54-2.745,1.138-3.791a54.251,54.251,0,0,0,14.212-12.284,26.889,26.889,0,0,0,6.28-16.548,11.542,11.542,0,0,0-7.416-11.221,11.377,11.377,0,0,0-13.258,3.965c-.237.309-.457.631-.685.947-2.314,3.2-5.9,3.241-8.159.024a12.155,12.155,0,0,0-8.046-5.459,11.439,11.439,0,0,0-13.28,10.259c-.462,7.313,2.417,13.477,6.948,18.966a50.739,50.739,0,0,0,11.926,10.382c.657.42,1.344.8,1.96,1.274a2.467,2.467,0,0,1,.735,3.513,2.514,2.514,0,0,1-3.415.657c-7.966-4.842-14.9-10.765-19.427-19.089a28.811,28.811,0,0,1-3.773-15.537,16.366,16.366,0,0,1,13.627-15.372,4.1,4.1,0,0,0,.754-.3h4.013c1.321.382,2.671.688,3.96,1.162a16.728,16.728,0,0,1,8.055,6.536c.848-1,1.559-1.9,2.338-2.745,2.545-2.748,5.844-4.091,9.39-4.953Z" fill="#aa856c"/>
      <path id="Trazado_17" data-name="Trazado 17" d="M2766.627,1989.794v9.761c0,4.292.009,8.583,0,12.875-.007,1.989-.911,3.14-2.433,3.174-1.581.036-2.569-1.161-2.573-3.233-.016-6.855-.006-13.711-.006-20.567V1989.8h-2.092c-11.76,0-23.52-.053-35.28.03a7.852,7.852,0,0,1-7.835-4.786c-3.692-7.487-7.535-14.9-11.321-22.339-.243-.48-.52-.943-1.02-1.845v93.233h1.651q26.166,0,52.334,0c2.735,0,3.553-.814,3.558-3.614q.019-11.954.005-23.909c0-.39-.011-.781,0-1.17.064-1.932,1.057-3.1,2.593-3.049,1.475.046,2.408,1.167,2.414,3.024q.024,9.864.007,19.729c0,2.063.036,4.126-.019,6.186a7.586,7.586,0,0,1-7.978,7.814q-57.184.012-114.368,0c-4.87,0-8.055-3.12-8.084-8.045-.053-9.2-.019-18.393-.019-27.588q0-15.8,0-31.6v-1.982c-.7-.034-1.289-.085-1.878-.087-3.4-.008-6.8.046-10.2-.018-4.207-.077-6.546-3.644-4.673-7.418,5.073-10.219,10.264-20.379,15.483-30.525a7.966,7.966,0,0,1,7.646-4.446q58.855.021,117.71,0a8.168,8.168,0,0,1,7.818,4.735c5.094,9.958,10.191,19.919,15.2,29.92,2.055,4.1-.285,7.711-4.894,7.743-3.838.027-7.677.006-11.745.006m-67.919,64.294v-93.244c-.5.929-.773,1.4-1.019,1.886-3.761,7.39-7.6,14.744-11.243,22.19a7.921,7.921,0,0,1-7.925,4.908c-11.759-.092-23.518-.033-35.278-.033h-1.963c-.05.437-.1.652-.1.865q0,30.094.006,60.189c0,2.4.942,3.238,3.426,3.238q26.25,0,52.5,0Zm6.858-101.671c.354.761.586,1.307.853,1.832,4.808,9.474,9.651,18.929,14.4,28.43a3.385,3.385,0,0,0,3.5,2.132c17.6-.056,35.2-.034,52.8-.034h1.809c-.241-.57-.368-.921-.535-1.252q-7.325-14.433-14.64-28.87a3.81,3.81,0,0,0-3.861-2.266c-17.489.048-34.978.028-52.468.028Zm-8.412,0h-1.969c-17.322,0-34.645.034-51.966-.043a4.332,4.332,0,0,0-4.429,2.727c-4.678,9.351-9.455,18.653-14.191,27.974-.244.48-.433.984-.71,1.617.534.035.905.081,1.276.081q26.9.006,53.8.023a2.717,2.717,0,0,0,2.746-1.686q7.4-14.673,14.883-29.309c.191-.377.318-.786.555-1.384" fill="#aa856c"/>
    </g>
  </g>
</svg>
