<svg xmlns="http://www.w3.org/2000/svg" width="50.662" height="50.662" viewBox="0 0 50.662 50.662">
  <g id="Grupo_150" data-name="Grupo 150" transform="translate(-934.669 -2105.572)">
    <circle id="Elipse_28" data-name="Elipse 28" cx="25.331" cy="25.331" r="25.331" transform="translate(934.669 2105.572)" fill="#b48d70"/>
    <g id="Grupo_149" data-name="Grupo 149">
      <g id="Grupo_148" data-name="Grupo 148">
        <path id="Trazado_85" data-name="Trazado 85" d="M972.609,2124.5a3.437,3.437,0,0,1-1.193,2q-6.377,6.351-12.731,12.725a2.588,2.588,0,0,1-2.146.832,2.4,2.4,0,0,1-1.422-.609q-.093-.081-.18-.168-3.369-3.369-6.738-6.739a2.521,2.521,0,0,1,3.349-3.769c.223.194.427.408.636.617q2.2,2.193,4.387,4.389a1.756,1.756,0,0,1,.165.216l.109.035a1.223,1.223,0,0,1,.153-.254q5.6-5.6,11.191-11.2a2.586,2.586,0,0,1,2.075-.831,2.483,2.483,0,0,1,2.3,2.1c.009.055.028.109.042.163Z" fill="#fff"/>
      </g>
    </g>
  </g>
</svg>
