<svg xmlns="http://www.w3.org/2000/svg" width="18.958" height="18.956" viewBox="0 0 18.958 18.956">
  <g id="Grupo_62" data-name="Grupo 62" transform="translate(-3125.876 -2939.843)">
    <path id="Trazado_55" data-name="Trazado 55" d="M3125.876,2958.8c.157-.465.307-.909.458-1.353.4-1.17.795-2.339,1.186-3.511a.273.273,0,0,0-.034-.2,9.193,9.193,0,0,1,.434-9.969,9.05,9.05,0,0,1,4.8-3.491,9.363,9.363,0,0,1,9.364,2.249,9.189,9.189,0,0,1,1.412,11.327,9.309,9.309,0,0,1-6.5,4.348,9.472,9.472,0,0,1-5.379-.742c-.16-.072-.312-.164-.474-.23a.368.368,0,0,0-.231-.018q-2.435.765-4.864,1.539C3126,2958.766,3125.947,2958.779,3125.876,2958.8Zm2.342-2.292c.081-.021.13-.031.178-.046.9-.285,1.793-.569,2.688-.859a.28.28,0,0,1,.26.031c.2.125.409.244.62.352a7.852,7.852,0,0,0,10.479-3.284,7.776,7.776,0,0,0-6.149-11.342,7.863,7.863,0,0,0-7.268,3.41,7.562,7.562,0,0,0-1.2,2.967,7.711,7.711,0,0,0-.008,2.642,7.52,7.52,0,0,0,1.295,3.127.267.267,0,0,1,.038.272c-.166.467-.322.938-.481,1.409C3128.519,2955.616,3128.374,2956.046,3128.218,2956.507Z" fill="#fff"/>
    <path id="Trazado_56" data-name="Trazado 56" d="M3132.616,2944.879a.752.752,0,0,0,.108,0c.346-.056.523.127.642.425.208.524.42,1.047.655,1.558a.645.645,0,0,1-.083.709c-.145.2-.306.379-.464.564s-.174.277-.054.474a6.114,6.114,0,0,0,2.547,2.41q.285.141.579.262a.347.347,0,0,0,.49-.125c.213-.255.422-.511.628-.771s.312-.294.612-.154c.591.275,1.177.559,1.767.836a.337.337,0,0,1,.21.359,1.761,1.761,0,0,1-1.307,1.815,2.184,2.184,0,0,1-1.518.1,12.75,12.75,0,0,1-2.121-.781,7.325,7.325,0,0,1-2.007-1.5,10.419,10.419,0,0,1-2-2.732,2.864,2.864,0,0,1-.243-1.919,2.492,2.492,0,0,1,.876-1.392A.867.867,0,0,1,3132.616,2944.879Z" fill="#fff"/>
  </g>
</svg>
