<svg xmlns="http://www.w3.org/2000/svg" width="23.403" height="23.4" viewBox="0 0 23.403 23.4">
  <g id="Grupo_133" data-name="Grupo 133" transform="translate(-1745.969 -7379.231)">
    <path id="Trazado_75" data-name="Trazado 75" d="M1745.969,7402.632c.194-.574.378-1.122.564-1.669.49-1.445.982-2.888,1.465-4.335a.332.332,0,0,0-.042-.243,11.345,11.345,0,0,1,.535-12.307,11.187,11.187,0,0,1,5.92-4.31,11.558,11.558,0,0,1,11.559,2.777,11.341,11.341,0,0,1,1.743,13.983,11.492,11.492,0,0,1-8.023,5.368,11.722,11.722,0,0,1-6.641-.916c-.2-.09-.385-.2-.585-.285a.455.455,0,0,0-.285-.021q-3,.944-6.005,1.9C1746.116,7402.592,1746.056,7402.608,1745.969,7402.632Zm2.891-2.829c.1-.026.16-.038.22-.057,1.106-.352,2.213-.7,3.318-1.061a.349.349,0,0,1,.321.039c.25.154.5.3.765.435a9.694,9.694,0,0,0,12.936-4.055,9.6,9.6,0,0,0-7.591-14,9.708,9.708,0,0,0-8.972,4.209,9.343,9.343,0,0,0-1.488,3.663,9.5,9.5,0,0,0-.009,3.262,9.274,9.274,0,0,0,1.6,3.86.327.327,0,0,1,.047.335c-.2.578-.4,1.159-.594,1.74C1749.231,7398.7,1749.052,7399.234,1748.86,7399.8Z" fill="#2d7d91"/>
    <path id="Trazado_76" data-name="Trazado 76" d="M1754.289,7385.449a.971.971,0,0,0,.133,0c.427-.069.645.157.792.525.258.647.519,1.292.81,1.924a.8.8,0,0,1-.1.875c-.178.241-.377.467-.572.695s-.215.342-.067.586a7.555,7.555,0,0,0,3.144,2.976q.352.173.716.322a.429.429,0,0,0,.6-.154q.393-.471.774-.952c.252-.318.385-.362.756-.19.729.34,1.453.691,2.181,1.032a.418.418,0,0,1,.26.443,2.175,2.175,0,0,1-1.614,2.241,2.693,2.693,0,0,1-1.873.126,15.727,15.727,0,0,1-2.62-.964,9.073,9.073,0,0,1-2.477-1.849,12.877,12.877,0,0,1-2.466-3.373,3.537,3.537,0,0,1-.3-2.369,3.087,3.087,0,0,1,1.082-1.718A1.065,1.065,0,0,1,1754.289,7385.449Z" fill="#2d7d91"/>
  </g>
</svg>
